<svg id="圖層_1" data-name="圖層 1" xmlns="http://www.w3.org/2000/svg" viewBox="0 0 81 81"><defs><style>.cls-1{fill:#fff;}.cls-2{fill:none;}</style></defs><path class="cls-1" d="M63.28,23.67a3.25,3.25,0,0,1-.89,1.21,2.85,2.85,0,0,1-1.55.79,3.07,3.07,0,0,1-2-.49c-.25-.14-.45-.28-.63-.4a4.64,4.64,0,0,1-1.92-2.12,2.32,2.32,0,0,1,.22-1.7,5.34,5.34,0,0,1,1.59-2c.1-.06.32,0,.65.17s.77.48,1.5,1a1,1,0,0,0,.14.17.41.41,0,0,1,.1.14.31.31,0,0,1,0,.19q0,.15-.42.36a1.92,1.92,0,0,0-.46.33,3.15,3.15,0,0,0-1.13,1.49,2,2,0,0,0-.19.94c0,.09.09.17.25.26a.88.88,0,0,0,.49.13,1.89,1.89,0,0,0,1.25-.6,4,4,0,0,0,1-1.4,1.94,1.94,0,0,0,.17-.68l.07-.19c0-.08.1-.12.17-.11a8.14,8.14,0,0,1,1.25,1.1l.22.19.23.22C63.53,22.85,63.5,23.18,63.28,23.67ZM46.8,20a2.81,2.81,0,0,0,1,.1.9.9,0,0,0,.72-.27,30.63,30.63,0,0,0,1.78-4.66L53,20.53a3.24,3.24,0,0,1-.1.44c0,.13-.07.25-.1.36s0,.25.23.39a2.23,2.23,0,0,0,.71.34,2.49,2.49,0,0,0,.78.11c.24,0,.38-.08.42-.21q.88-3.37,1.31-5.06a14.18,14.18,0,0,0,.43-2c0-.16-.11-.32-.36-.5a3.1,3.1,0,0,0-.84-.4q-.83-.24-.9,0c0,.15-.38,1.5-1,4.05L50.9,13.45a.8.8,0,0,0,.1-.23c0-.16,0-.34-.29-.55a2.18,2.18,0,0,0-.81-.46,1.19,1.19,0,0,0-.67,0,.55.55,0,0,0-.39.39c-.05.2-.27.78-.64,1.75s-.61,1.59-.71,1.85l-.65,1.65c-.34.84-.55,1.4-.62,1.66S46.35,19.9,46.8,20Zm22.37,11a1.26,1.26,0,0,1-.27,1.1,1,1,0,0,1-.35.2q-1,.35-3.51-2.94a2.23,2.23,0,0,0-.15.49,1.2,1.2,0,0,0,.16.77,11.11,11.11,0,0,0,.63,1.12c.24.36.47.74.71,1.13l.16.23a.37.37,0,0,1-.11.53l0,0a.36.36,0,0,1-.25,0,.5.5,0,0,1-.23-.17l-.71-.85c-.6-.8-1.07-1.46-1.4-2a3.74,3.74,0,0,1-.6-1.72,2.25,2.25,0,0,1,.45-1.87l-.34-1.06a.32.32,0,0,1,.1-.21.61.61,0,0,1,.32-.11.39.39,0,0,1,.3.1l.16.68a2.75,2.75,0,0,1,1.41-.11,3.63,3.63,0,0,1,2.12,1.46,8.45,8.45,0,0,1,1,1.65A4.21,4.21,0,0,1,69.17,31.07Zm-1.53-1a.77.77,0,0,0,0-.25v-.05a4.82,4.82,0,0,0-.56-.6,1.34,1.34,0,0,0-.64-.28c-.41-.11-.68-.1-.82,0a1.11,1.11,0,0,0,.12.18,1.85,1.85,0,0,0,.2.27,9.63,9.63,0,0,0,.79.92.81.81,0,0,0,.42.23.42.42,0,0,0,.51-.44ZM30.86,21a4.62,4.62,0,0,0,2.87-.12c.2-.06.43-.13.69-.23a3.1,3.1,0,0,0,1.69-1.25,2.91,2.91,0,0,0,.38-1.69,3.26,3.26,0,0,0-.37-1.47c-.23-.48-.47-.71-.7-.69s-.24,0-.31,0l-.28,0a6.56,6.56,0,0,0-1.64.27.14.14,0,0,0,0,.19l.1.19a1.8,1.8,0,0,1,.41.55,4,4,0,0,1,.43,1.67,1.81,1.81,0,0,1-.34,1.35.74.74,0,0,1-.4.29q-.26.11-.36,0a2,2,0,0,1-.6-.74A3.14,3.14,0,0,1,32,17.6,1.54,1.54,0,0,1,32,17a.85.85,0,0,0,0-.55.44.44,0,0,0-.15-.12.35.35,0,0,0-.17,0,.8.8,0,0,1-.22,0,17.06,17.06,0,0,0-1.72.53c-.35.14-.53.26-.54.39a5.51,5.51,0,0,0,.49,2.48A2.32,2.32,0,0,0,30.86,21ZM45.8,19.15v0a.32.32,0,0,1-.14.2.4.4,0,0,1-.26.11l-1.09.16c-1,.1-1.8.16-2.42.18a3.86,3.86,0,0,1-1.78-.38,2.27,2.27,0,0,1-1.36-1.35l-1.08-.27a.27.27,0,0,1-.13-.19.54.54,0,0,1,.08-.33.32.32,0,0,1,.23-.2l.66.21a2.75,2.75,0,0,1,.65-1.25A3.61,3.61,0,0,1,41.5,15a8.37,8.37,0,0,1,1.94,0,4.35,4.35,0,0,1,1.52.43,1.29,1.29,0,0,1,.8.81,1.07,1.07,0,0,1,0,.4c-.16.69-1.6,1.18-4.34,1.47a1.6,1.6,0,0,0,.35.38,1.13,1.13,0,0,0,.74.27,11,11,0,0,0,1.28,0l1.33,0,.28,0A.39.39,0,0,1,45.8,19.15Zm-4.54-1.76h.22l.32,0A8.67,8.67,0,0,0,43,17.15a.74.74,0,0,0,.41-.25.41.41,0,0,0,.11-.36.42.42,0,0,0-.22-.29.6.6,0,0,0-.24-.11l0,0a4.24,4.24,0,0,0-.8.17,1.35,1.35,0,0,0-.57.4C41.36,17,41.22,17.2,41.26,17.39Zm-19.89,10c0,.33-.39.41-.57.73a3.36,3.36,0,0,1-.43.64.12.12,0,0,1-.07,0c-.09-.09,0,0-.28-.06l-.69-.26A5.34,5.34,0,0,1,17.5,32c-1,.87-1.93,1.06-2.7.56a2,2,0,0,1-.86-2.31,7.48,7.48,0,0,1,1.33-2.92s0,0,0-.07a6.15,6.15,0,0,0-1.29,0c-.35,0-1.2.17-1.09.68s.07,1-.54,1-.72-1.12-.33-2a3.87,3.87,0,0,1,1.65-1,5.12,5.12,0,0,1,1.12-.19,1.7,1.7,0,0,1,.75,0,10.26,10.26,0,0,1,2.77.57l0,0,.74.21c1.36.37,1.87.43,2.07.63C21.08,27.14,21.37,27.39,21.37,27.39Zm-2.63.8L16,27.56a4.62,4.62,0,0,0-.5,1.9c-.13,1,.29,1.52,1.28,1.46A4.56,4.56,0,0,0,18.74,28.19Zm5-3.14A31.35,31.35,0,0,0,21.3,20.7L27.11,22a3.58,3.58,0,0,1,.28.36l.2.31c.07.1.22.13.45.07a2,2,0,0,0,.71-.32,2.07,2.07,0,0,0,.59-.54c.15-.18.18-.34.11-.44-1.34-1.9-2.36-3.32-3-4.27a17.16,17.16,0,0,0-1.24-1.6c-.11-.11-.32-.12-.62,0a3,3,0,0,0-.85.39c-.47.31-.65.55-.55.71s.9,1.25,2.46,3.37l-5.29-.93a1.13,1.13,0,0,0-.11-.22c-.09-.15-.3-.19-.61-.14a2.25,2.25,0,0,0-.87.33,1.17,1.17,0,0,0-.45.5.53.53,0,0,0,.05.54c.12.18.43.72.93,1.63l1,1.73c.13.24.42.76.85,1.56s.72,1.31.87,1.54.4.16.8-.1a3,3,0,0,0,.73-.7A1,1,0,0,0,23.73,25.05Zm17.8,4.08a12.19,12.19,0,0,1,10.26,5.31,10.83,10.83,0,0,0-20.52,0A12.23,12.23,0,0,1,41.53,29.13Zm0,1.94a3.22,3.22,0,1,0,3.22,3.21A3.21,3.21,0,0,0,41.53,31.07Zm17.62,9.76.45-4.27-.82-.24-1,2.48H25.3l-1-2.48-.82.24.46,4.27H36l4,8.71L28.92,56.81l3,10.08-4.63,1.28.09.66,7.64,0L33,57.79l8.54-5.32,8.55,5.32L48,68.85l7.64,0,.09-.66-4.64-1.28,3-10.08L43.07,49.54l4-8.71ZM41.53,24.55A17.87,17.87,0,0,1,57.62,34.67a16.61,16.61,0,0,0-32.18,0A17.87,17.87,0,0,1,41.53,24.55Z"/><rect class="cls-2" width="81" height="81"/></svg>